<svg width="100" height="100" viewBox="0 0 100 100" fill="none" xmlns="http://www.w3.org/2000/svg">
<g id="fluent-mdl2:passive-authentication" clip-path="url(#clip0_498_6214)">
<path id="Vector" d="M65.625 73.7305L82.1777 57.1777L86.5723 61.5723L65.625 82.5195L54.0527 70.9473L58.4473 66.5527L65.625 73.7305ZM100 37.5V100H37.5V61.8652C35.5143 62.2884 33.431 62.5 31.25 62.5C26.9206 62.5 22.8678 61.6862 19.0918 60.0586C15.3158 58.431 11.9954 56.2012 9.13086 53.3691C6.26628 50.5371 4.03646 47.2331 2.44141 43.457C0.846354 39.681 0.0325521 35.612 0 31.25C0 26.9206 0.813802 22.8678 2.44141 19.0918C4.06901 15.3158 6.29883 11.9954 9.13086 9.13086C11.9629 6.26628 15.2669 4.03646 19.043 2.44141C22.819 0.846354 26.888 0.0325521 31.25 0C35.5794 0 39.6322 0.813802 43.4082 2.44141C47.1842 4.06901 50.5046 6.29883 53.3691 9.13086C56.2337 11.9629 58.4635 15.2669 60.0586 19.043C61.6536 22.819 62.4674 26.888 62.5 31.25C62.5 33.431 62.2884 35.5143 61.8652 37.5H100ZM6.25 31.25C6.25 34.7005 6.90104 37.9395 8.20312 40.9668C9.50521 43.9941 11.2956 46.6309 13.5742 48.877C15.8529 51.123 18.5059 52.9134 21.5332 54.248C24.5605 55.5827 27.7995 56.25 31.25 56.25C34.7005 56.25 37.9395 55.599 40.9668 54.2969C43.9941 52.9948 46.6309 51.2044 48.877 48.9258C51.123 46.6471 52.9134 43.9941 54.248 40.9668C55.5827 37.9395 56.25 34.7005 56.25 31.25C56.25 27.7995 55.599 24.5605 54.2969 21.5332C52.9948 18.5059 51.2044 15.8691 48.9258 13.623C46.6471 11.377 43.9941 9.58659 40.9668 8.25195C37.9395 6.91732 34.7005 6.25 31.25 6.25C27.7995 6.25 24.5605 6.90104 21.5332 8.20312C18.5059 9.50521 15.8691 11.2956 13.623 13.5742C11.377 15.8529 9.58659 18.5059 8.25195 21.5332C6.91732 24.5605 6.25 27.7995 6.25 31.25ZM93.75 43.75H59.9121C58.252 47.4284 56.071 50.6185 53.3691 53.3203C50.6673 56.0221 47.4609 58.2194 43.75 59.9121V93.75H93.75V43.75ZM49.0723 24.0723L28.125 45.0195L16.5527 33.4473L20.9473 29.0527L28.125 36.2305L44.6777 19.6777L49.0723 24.0723Z" fill="#4500D8"/>
</g>
<defs>
<clipPath id="clip0_498_6214">
<rect width="100" height="100" fill="white"/>
</clipPath>
</defs>
</svg>
