<svg width="40" height="40" viewBox="0 0 40 40" fill="none" xmlns="http://www.w3.org/2000/svg">
<g id="mingcute:user-4-line" clip-path="url(#clip0_671_12240)">
<g id="Group">
<path id="Vector" fill-rule="evenodd" clip-rule="evenodd" d="M19.9999 3.3335C29.2049 3.3335 36.6666 10.7952 36.6666 20.0002C36.6725 23.8467 35.3423 27.5758 32.9033 30.5502L32.9366 30.5868L32.7166 30.7735C31.1536 32.6222 29.2059 34.1074 27.0095 35.1253C24.813 36.1432 22.4208 36.6693 19.9999 36.6668C15.0833 36.6668 10.6666 34.5385 7.6166 31.1552L7.28327 30.7718L7.06327 30.5885L7.0966 30.5485C4.65787 27.5746 3.32764 23.8461 3.33327 20.0002C3.33327 10.7952 10.7949 3.3335 19.9999 3.3335ZM19.9999 28.3335C16.8999 28.3335 14.0983 29.3202 12.0116 30.6768C14.3156 32.4056 17.1194 33.3381 19.9999 33.3335C22.8804 33.3381 25.6842 32.4056 27.9883 30.6768C25.6039 29.1489 22.8318 28.3358 19.9999 28.3335ZM19.9999 6.66683C17.4908 6.66676 15.0326 7.37469 12.9078 8.70925C10.783 10.0438 9.07795 11.9508 7.98854 14.2111C6.89913 16.4714 6.46961 18.9932 6.74935 21.4867C7.0291 23.9802 8.00675 26.3441 9.56994 28.3068C12.2716 26.3685 15.9583 25.0002 19.9999 25.0002C24.0416 25.0002 27.7283 26.3685 30.4299 28.3068C31.9931 26.3441 32.9708 23.9802 33.2505 21.4867C33.5303 18.9932 33.1007 16.4714 32.0113 14.2111C30.9219 11.9508 29.2168 10.0438 27.0921 8.70925C24.9673 7.37469 22.5091 6.66676 19.9999 6.66683ZM19.9999 10.0002C21.768 10.0002 23.4637 10.7025 24.714 11.9528C25.9642 13.203 26.6666 14.8987 26.6666 16.6668C26.6666 18.4349 25.9642 20.1306 24.714 21.3809C23.4637 22.6311 21.768 23.3335 19.9999 23.3335C18.2318 23.3335 16.5361 22.6311 15.2859 21.3809C14.0356 20.1306 13.3333 18.4349 13.3333 16.6668C13.3333 14.8987 14.0356 13.203 15.2859 11.9528C16.5361 10.7025 18.2318 10.0002 19.9999 10.0002ZM19.9999 13.3335C19.1159 13.3335 18.268 13.6847 17.6429 14.3098C17.0178 14.9349 16.6666 15.7828 16.6666 16.6668C16.6666 17.5509 17.0178 18.3987 17.6429 19.0239C18.268 19.649 19.1159 20.0002 19.9999 20.0002C20.884 20.0002 21.7318 19.649 22.357 19.0239C22.9821 18.3987 23.3333 17.5509 23.3333 16.6668C23.3333 15.7828 22.9821 14.9349 22.357 14.3098C21.7318 13.6847 20.884 13.3335 19.9999 13.3335Z" fill="black"/>
</g>
</g>
<defs>
<clipPath id="clip0_671_12240">
<rect width="40" height="40" fill="white"/>
</clipPath>
</defs>
</svg>
