<svg width="50" height="50" viewBox="0 0 50 50" fill="none" xmlns="http://www.w3.org/2000/svg">
<g id="ic:baseline-apple">
<path id="Vector" d="M35.3272 42C33.2856 43.9792 31.0564 43.6667 28.9106 42.7292C26.6397 41.7708 24.5564 41.7292 22.1606 42.7292C19.1606 44.0208 17.5772 43.6458 15.7856 42C5.61891 31.5208 7.11891 15.5625 18.6606 14.9792C21.4731 15.125 23.4314 16.5208 25.0772 16.6458C27.5356 16.1458 29.8897 14.7083 32.5147 14.8958C35.6606 15.1458 38.0356 16.3958 39.5981 18.6458C33.0981 22.5417 34.6397 31.1042 40.5981 33.5C39.4106 36.625 37.8689 39.7292 35.3064 42.0208L35.3272 42ZM24.8689 14.8542C24.5564 10.2083 28.3272 6.375 32.6606 6C33.2647 11.375 27.7856 15.375 24.8689 14.8542Z" fill="white"/>
</g>
</svg>
