<svg width="100" height="100" viewBox="0 0 100 100" fill="none" xmlns="http://www.w3.org/2000/svg">
<g id="carbon:ibm-cloud-pak-integration">
<path id="Vector" d="M69.1281 30.8718C67.37 29.1143 64.9859 28.127 62.5 28.127C60.0141 28.127 57.6299 29.1143 55.8718 30.8718L54.4187 32.3218L58.8375 36.7406L60.2906 35.2906C60.88 34.7213 61.6694 34.4064 62.4887 34.4135C63.3081 34.4206 64.0919 34.7492 64.6713 35.3286C65.2507 35.908 65.5793 36.6918 65.5865 37.5112C65.5936 38.3306 65.2786 39.1199 64.7093 39.7093L54.4187 50L58.8375 54.4187L69.1281 44.1281C70.8856 42.37 71.873 39.9859 71.873 37.5C71.873 35.014 70.8856 32.6299 69.1281 30.8718ZM39.7093 64.7093C39.12 65.2786 38.3306 65.5936 37.5112 65.5864C36.6919 65.5793 35.9081 65.2507 35.3287 64.6713C34.7493 64.0919 34.4206 63.3081 34.4135 62.4887C34.4064 61.6693 34.7214 60.88 35.2906 60.2906L45.5812 50L41.1625 45.5812L30.8718 55.8718C29.9764 56.7366 29.2622 57.7711 28.7709 58.9149C28.2796 60.0587 28.0209 61.2889 28.0101 62.5337C27.9993 63.7785 28.2365 65.013 28.7079 66.1651C29.1793 67.3173 29.8754 68.364 30.7556 69.2443C31.6359 70.1245 32.6826 70.8206 33.8348 71.292C34.9869 71.7634 36.2214 72.0006 37.4662 71.9898C38.711 71.979 39.9412 71.7204 41.085 71.229C42.2288 70.7377 43.2633 70.0235 44.1281 69.1281L45.5812 67.6781L41.1625 63.2593L39.7093 64.7093ZM44.1281 30.875C42.3528 29.2086 39.9988 28.2983 37.5643 28.3367C35.1297 28.3751 32.8056 29.3591 31.0837 31.0806C29.3618 32.8021 28.3772 35.126 28.3383 37.5605C28.2993 39.9951 29.209 42.3492 30.875 44.125L32.325 45.5781L36.7437 41.1593L35.2937 39.7062C34.7245 39.1168 34.4095 38.3274 34.4166 37.5081C34.4237 36.6887 34.7524 35.9049 35.3318 35.3255C35.9112 34.7461 36.695 34.4175 37.5143 34.4103C38.3337 34.4032 39.1231 34.7182 39.7125 35.2875L50 45.5812L54.4187 41.1625L44.1281 30.875Z" fill="#4500D8"/>
<path id="Vector_2" d="M69.1281 55.8721L67.6781 54.4189L63.2594 58.8377L64.7094 60.2908C65.2786 60.8802 65.5936 61.6696 65.5865 62.4889C65.5794 63.3083 65.2507 64.0921 64.6713 64.6715C64.0919 65.2509 63.3081 65.5796 62.4887 65.5867C61.6694 65.5938 60.88 65.2788 60.2906 64.7096L50 54.4189L45.5812 58.8377L55.8719 69.1283C57.64 70.8361 60.0082 71.781 62.4663 71.7596C64.9243 71.7383 67.2757 70.7523 69.0139 69.0141C70.7521 67.2759 71.7381 64.9246 71.7594 62.4665C71.7808 60.0084 70.8358 57.6402 69.1281 55.8721Z" fill="#4500D8"/>
<path id="Vector_3" d="M50 96.8749C49.4466 96.8754 48.9031 96.7287 48.425 96.4499L10.925 74.5749C10.4532 74.2996 10.0618 73.9054 9.78983 73.4317C9.51787 72.958 9.37484 72.4212 9.375 71.8749V28.1249C9.37484 27.5787 9.51787 27.0419 9.78983 26.5682C10.0618 26.0944 10.4532 25.7003 10.925 25.4249L48.425 3.54995C48.903 3.27101 49.4465 3.12402 50 3.12402C50.5535 3.12402 51.097 3.27101 51.575 3.54995L89.075 25.4249L85.925 30.8249L50 9.8687L15.625 29.9187V70.0812L50 90.1343L84.375 70.0812V46.8749H90.625V71.8749C90.6252 72.4212 90.4821 72.958 90.2102 73.4317C89.9382 73.9054 89.5468 74.2996 89.075 74.5749L51.575 96.4499C51.0969 96.7287 50.5534 96.8754 50 96.8749Z" fill="#4500D8"/>
</g>
</svg>
