<svg width="16" height="17" viewBox="0 0 16 17" fill="none" xmlns="http://www.w3.org/2000/svg">
<g id="CloudArrowUp">
<path id="Vector" d="M15.4999 8.77718C15.5031 9.96791 15.1168 11.127 14.3999 12.0778C14.3605 12.1303 14.311 12.1746 14.2545 12.208C14.1979 12.2414 14.1353 12.2634 14.0702 12.2726C14.0052 12.2818 13.9389 12.2781 13.8753 12.2618C13.8116 12.2454 13.7518 12.2167 13.6993 12.1772C13.6468 12.1377 13.6026 12.0883 13.5691 12.0317C13.5357 11.9751 13.5138 11.9125 13.5045 11.8474C13.4953 11.7824 13.499 11.7161 13.5153 11.6525C13.5317 11.5889 13.5605 11.5291 13.5999 11.4766C14.1867 10.6992 14.5028 9.75112 14.4999 8.77718C14.4999 7.5837 14.0258 6.43911 13.1819 5.5952C12.338 4.75128 11.1934 4.27718 9.99994 4.27718C8.80647 4.27718 7.66188 4.75128 6.81796 5.5952C5.97405 6.43911 5.49994 7.5837 5.49994 8.77718C5.49994 8.90979 5.44726 9.03696 5.3535 9.13073C5.25973 9.2245 5.13255 9.27718 4.99994 9.27718C4.86733 9.27718 4.74016 9.2245 4.64639 9.13073C4.55262 9.03696 4.49994 8.90979 4.49994 8.77718C4.4997 8.2726 4.56889 7.77039 4.70557 7.28468C4.63744 7.27718 4.56869 7.27718 4.49994 7.27718C3.70429 7.27718 2.94123 7.59325 2.37862 8.15586C1.81601 8.71847 1.49994 9.48153 1.49994 10.2772C1.49994 11.0728 1.81601 11.8359 2.37862 12.3985C2.94123 12.9611 3.70429 13.2772 4.49994 13.2772H5.99994C6.13255 13.2772 6.25973 13.3299 6.3535 13.4236C6.44726 13.5174 6.49994 13.6446 6.49994 13.7772C6.49994 13.9098 6.44726 14.037 6.3535 14.1307C6.25973 14.2245 6.13255 14.2772 5.99994 14.2772H4.49994C3.95005 14.2773 3.40604 14.1641 2.90189 13.9445C2.39773 13.7249 1.94426 13.4038 1.5698 13.0011C1.19534 12.5984 0.907927 12.1228 0.725516 11.6041C0.543105 11.0853 0.469613 10.5345 0.509629 9.98609C0.549646 9.43766 0.702312 8.90337 0.958093 8.41658C1.21387 7.9298 1.56727 7.50099 1.99622 7.15692C2.42517 6.81286 2.92046 6.56093 3.45114 6.41687C3.98183 6.27282 4.53652 6.23973 5.08057 6.31968C5.63457 5.21165 6.54641 4.3231 7.66839 3.79795C8.79038 3.2728 10.0568 3.1418 11.2625 3.42618C12.4682 3.71056 13.5427 4.39366 14.3117 5.36483C15.0808 6.33601 15.4995 7.53837 15.4999 8.77718ZM9.85369 8.42343C9.80726 8.37694 9.75211 8.34006 9.69141 8.3149C9.63071 8.28974 9.56565 8.27679 9.49994 8.27679C9.43423 8.27679 9.36917 8.28974 9.30847 8.3149C9.24777 8.34006 9.19263 8.37694 9.14619 8.42343L7.14619 10.4234C7.09974 10.4699 7.06289 10.525 7.03775 10.5857C7.0126 10.6464 6.99966 10.7115 6.99966 10.7772C6.99966 10.8429 7.0126 10.9079 7.03775 10.9686C7.06289 11.0293 7.09974 11.0845 7.14619 11.1309C7.24001 11.2247 7.36726 11.2775 7.49994 11.2775C7.56564 11.2775 7.63069 11.2645 7.69139 11.2394C7.75209 11.2142 7.80724 11.1774 7.85369 11.1309L8.99994 9.98405V13.7772C8.99994 13.9098 9.05262 14.037 9.14639 14.1307C9.24016 14.2245 9.36733 14.2772 9.49994 14.2772C9.63255 14.2772 9.75973 14.2245 9.8535 14.1307C9.94726 14.037 9.99994 13.9098 9.99994 13.7772V9.98405L11.1462 11.1309C11.1926 11.1774 11.2478 11.2142 11.3085 11.2394C11.3692 11.2645 11.4342 11.2775 11.4999 11.2775C11.5656 11.2775 11.6307 11.2645 11.6914 11.2394C11.7521 11.2142 11.8072 11.1774 11.8537 11.1309C11.9001 11.0845 11.937 11.0293 11.9621 10.9686C11.9873 10.9079 12.0002 10.8429 12.0002 10.7772C12.0002 10.7115 11.9873 10.6464 11.9621 10.5857C11.937 10.525 11.9001 10.4699 11.8537 10.4234L9.85369 8.42343Z" fill="#18181B"/>
</g>
</svg>
