<svg width="15" height="15" viewBox="0 0 15 15" fill="none" xmlns="http://www.w3.org/2000/svg">
<g id="DotsNine">
<path id="Vector" d="M4.55575 3.33366C4.55575 3.46551 4.51665 3.59441 4.44339 3.70404C4.37014 3.81367 4.26602 3.89912 4.1442 3.94958C4.02238 4.00004 3.88834 4.01324 3.75902 3.98752C3.6297 3.96179 3.51091 3.8983 3.41767 3.80506C3.32444 3.71183 3.26095 3.59304 3.23522 3.46372C3.2095 3.3344 3.2227 3.20035 3.27316 3.07854C3.32362 2.95672 3.40907 2.8526 3.5187 2.77935C3.62833 2.70609 3.75722 2.66699 3.88908 2.66699C4.06589 2.66699 4.23546 2.73723 4.36048 2.86225C4.48551 2.98728 4.55575 3.15685 4.55575 3.33366ZM7.66686 2.66699C7.535 2.66699 7.40611 2.70609 7.29648 2.77935C7.18684 2.8526 7.1014 2.95672 7.05094 3.07854C7.00048 3.20035 6.98728 3.3344 7.013 3.46372C7.03872 3.59304 7.10222 3.71183 7.19545 3.80506C7.28869 3.8983 7.40748 3.96179 7.5368 3.98752C7.66612 4.01324 7.80016 4.00004 7.92198 3.94958C8.0438 3.89912 8.14792 3.81367 8.22117 3.70404C8.29442 3.59441 8.33352 3.46551 8.33352 3.33366C8.33352 3.15685 8.26329 2.98728 8.13826 2.86225C8.01324 2.73723 7.84367 2.66699 7.66686 2.66699ZM11.4446 4.00033C11.5765 4.00033 11.7054 3.96123 11.815 3.88797C11.9246 3.81472 12.0101 3.7106 12.0606 3.58878C12.111 3.46696 12.1242 3.33292 12.0985 3.2036C12.0728 3.07428 12.0093 2.95549 11.916 2.86225C11.8228 2.76902 11.704 2.70553 11.5747 2.6798C11.4454 2.65408 11.3113 2.66728 11.1895 2.71774C11.0677 2.7682 10.9636 2.85365 10.8903 2.96328C10.8171 3.07291 10.778 3.2018 10.778 3.33366C10.778 3.51047 10.8482 3.68004 10.9732 3.80506C11.0983 3.93009 11.2678 4.00033 11.4446 4.00033ZM3.88908 6.44477C3.75722 6.44477 3.62833 6.48387 3.5187 6.55712C3.40907 6.63038 3.32362 6.7345 3.27316 6.85631C3.2227 6.97813 3.2095 7.11218 3.23522 7.2415C3.26095 7.37082 3.32444 7.48961 3.41767 7.58284C3.51091 7.67608 3.6297 7.73957 3.75902 7.76529C3.88834 7.79102 4.02238 7.77781 4.1442 7.72736C4.26602 7.6769 4.37014 7.59145 4.44339 7.48182C4.51665 7.37218 4.55575 7.24329 4.55575 7.11144C4.55575 6.93463 4.48551 6.76506 4.36048 6.64003C4.23546 6.51501 4.06589 6.44477 3.88908 6.44477ZM7.66686 6.44477C7.535 6.44477 7.40611 6.48387 7.29648 6.55712C7.18684 6.63038 7.1014 6.7345 7.05094 6.85631C7.00048 6.97813 6.98728 7.11218 7.013 7.2415C7.03872 7.37082 7.10222 7.48961 7.19545 7.58284C7.28869 7.67608 7.40748 7.73957 7.5368 7.76529C7.66612 7.79102 7.80016 7.77781 7.92198 7.72736C8.0438 7.6769 8.14792 7.59145 8.22117 7.48182C8.29442 7.37218 8.33352 7.24329 8.33352 7.11144C8.33352 6.93463 8.26329 6.76506 8.13826 6.64003C8.01324 6.51501 7.84367 6.44477 7.66686 6.44477ZM11.4446 6.44477C11.3128 6.44477 11.1839 6.48387 11.0743 6.55712C10.9646 6.63038 10.8792 6.7345 10.8287 6.85631C10.7783 6.97813 10.7651 7.11218 10.7908 7.2415C10.8165 7.37082 10.88 7.48961 10.9732 7.58284C11.0665 7.67608 11.1853 7.73957 11.3146 7.76529C11.4439 7.79102 11.5779 7.77781 11.6998 7.72736C11.8216 7.6769 11.9257 7.59145 11.9989 7.48182C12.0722 7.37218 12.1113 7.24329 12.1113 7.11144C12.1113 6.93463 12.0411 6.76506 11.916 6.64003C11.791 6.51501 11.6214 6.44477 11.4446 6.44477ZM3.88908 10.2225C3.75722 10.2225 3.62833 10.2616 3.5187 10.3349C3.40907 10.4082 3.32362 10.5123 3.27316 10.6341C3.2227 10.7559 3.2095 10.89 3.23522 11.0193C3.26095 11.1486 3.32444 11.2674 3.41767 11.3606C3.51091 11.4539 3.6297 11.5173 3.75902 11.5431C3.88834 11.5688 4.02238 11.5556 4.1442 11.5051C4.26602 11.4547 4.37014 11.3692 4.44339 11.2596C4.51665 11.15 4.55575 11.0211 4.55575 10.8892C4.55575 10.7124 4.48551 10.5428 4.36048 10.4178C4.23546 10.2928 4.06589 10.2225 3.88908 10.2225ZM7.66686 10.2225C7.535 10.2225 7.40611 10.2616 7.29648 10.3349C7.18684 10.4082 7.1014 10.5123 7.05094 10.6341C7.00048 10.7559 6.98728 10.89 7.013 11.0193C7.03872 11.1486 7.10222 11.2674 7.19545 11.3606C7.28869 11.4539 7.40748 11.5173 7.5368 11.5431C7.66612 11.5688 7.80016 11.5556 7.92198 11.5051C8.0438 11.4547 8.14792 11.3692 8.22117 11.2596C8.29442 11.15 8.33352 11.0211 8.33352 10.8892C8.33352 10.7124 8.26329 10.5428 8.13826 10.4178C8.01324 10.2928 7.84367 10.2225 7.66686 10.2225ZM11.4446 10.2225C11.3128 10.2225 11.1839 10.2616 11.0743 10.3349C10.9646 10.4082 10.8792 10.5123 10.8287 10.6341C10.7783 10.7559 10.7651 10.89 10.7908 11.0193C10.8165 11.1486 10.88 11.2674 10.9732 11.3606C11.0665 11.4539 11.1853 11.5173 11.3146 11.5431C11.4439 11.5688 11.5779 11.5556 11.6998 11.5051C11.8216 11.4547 11.9257 11.3692 11.9989 11.2596C12.0722 11.15 12.1113 11.0211 12.1113 10.8892C12.1113 10.7124 12.0411 10.5428 11.916 10.4178C11.791 10.2928 11.6214 10.2225 11.4446 10.2225Z" fill="white"/>
</g>
</svg>
