<svg width="32" height="32" viewBox="0 0 32 32" fill="none" xmlns="http://www.w3.org/2000/svg">
<g id="simple-icons:googleanalytics" clip-path="url(#clip0_358_9795)">
<path id="Vector" d="M30.4532 3.99752V27.9962C30.4586 29.0508 30.0448 30.0644 29.3029 30.814C28.5611 31.5636 27.5519 31.9879 26.4972 31.9935C26.3333 31.9948 26.1694 31.9859 26.0066 31.9669C25.0222 31.8208 24.1252 31.32 23.4843 30.5588C22.8434 29.7976 22.5028 28.8283 22.5266 27.8335V4.16018C22.503 3.16437 22.8445 2.19433 23.4868 1.43294C24.1291 0.671556 25.0277 0.171431 26.0132 0.0268521C26.5724 -0.038452 27.139 0.0156855 27.6757 0.185685C28.2124 0.355685 28.7068 0.637673 29.1264 1.013C29.546 1.38834 29.8811 1.84846 30.1096 2.36295C30.3381 2.87744 30.4561 3.43458 30.4532 3.99752ZM5.51057 24.0735C4.98398 24.0639 4.46075 24.1592 3.97144 24.3541C3.48212 24.5489 3.03654 24.8393 2.66073 25.2083C2.28491 25.5773 1.98639 26.0175 1.78261 26.5031C1.57883 26.9888 1.47388 27.5102 1.47388 28.0368C1.47388 28.5635 1.57883 29.0849 1.78261 29.5706C1.98639 30.0562 2.28491 30.4964 2.66073 30.8654C3.03654 31.2344 3.48212 31.5248 3.97144 31.7196C4.46075 31.9145 4.98398 32.0098 5.51057 32.0002C6.54913 31.9811 7.53871 31.5552 8.26643 30.814C8.99416 30.0728 9.40188 29.0756 9.40188 28.0368C9.40188 26.9981 8.99416 26.0009 8.26643 25.2597C7.53871 24.5185 6.54913 24.0926 5.51057 24.0735ZM16.0066 12.0602H15.9399C14.8817 12.1181 13.8876 12.5855 13.1679 13.3634C12.4482 14.1413 12.0595 15.1687 12.0839 16.2282V26.8749C12.0839 29.7642 13.3559 31.5175 15.2172 31.8922C15.7948 32.0093 16.3912 31.9965 16.9632 31.8545C17.5352 31.7125 18.0684 31.445 18.5241 31.0713C18.9798 30.6977 19.3467 30.2273 19.598 29.6942C19.8494 29.1612 19.9789 28.5788 19.9772 27.9895V16.0442C19.9781 15.5219 19.8761 15.0045 19.677 14.5216C19.478 14.0387 19.1857 13.5998 18.817 13.2298C18.4483 12.8599 18.0103 12.5662 17.5281 12.3655C17.0459 12.1648 16.5289 12.0611 16.0066 12.0602Z" fill="black"/>
</g>
<defs>
<clipPath id="clip0_358_9795">
<rect width="32" height="32" fill="white"/>
</clipPath>
</defs>
</svg>
