<svg width="32" height="32" viewBox="0 0 32 32" fill="none" xmlns="http://www.w3.org/2000/svg">
<g id="simple-icons:googleoptimize" clip-path="url(#clip0_386_10653)">
<path id="Vector" d="M31.548 15.996C31.5708 16.5775 31.476 17.1576 31.2693 17.7016C31.0625 18.2456 30.748 18.7422 30.3447 19.1617C29.9413 19.5812 29.4574 19.9149 28.922 20.1429C28.3866 20.3709 27.8106 20.4884 27.2287 20.4884C26.6467 20.4884 26.0708 20.3709 25.5353 20.1429C24.9999 19.9149 24.516 19.5812 24.1126 19.1617C23.7093 18.7422 23.3948 18.2456 23.1881 17.7016C22.9813 17.1576 22.8865 16.5775 22.9093 15.996V8.73333H15.3467C14.2675 8.62003 13.2685 8.11113 12.5424 7.30478C11.8163 6.49844 11.4144 5.45177 11.4144 4.36667C11.4144 3.28156 11.8163 2.2349 12.5424 1.42855C13.2685 0.622204 14.2675 0.113301 15.3467 4.9102e-09L27.152 4.9102e-09C28.3084 -5.46637e-05 29.4181 0.45639 30.2398 1.27009C31.0615 2.0838 31.5288 3.18897 31.54 4.34533L31.548 15.996ZM9.18133 15.9813C9.18133 14.8232 8.72127 13.7125 7.90236 12.8936C7.08346 12.0747 5.97278 11.6147 4.81466 11.6147C3.65655 11.6147 2.54587 12.0747 1.72697 12.8936C0.908056 13.7125 0.447998 14.8232 0.447998 15.9813C0.447998 17.1394 0.908056 18.2501 1.72697 19.069C2.54587 19.8879 3.65655 20.348 4.81466 20.348C5.97278 20.348 7.08346 19.8879 7.90236 19.069C8.72127 18.2501 9.18133 17.1394 9.18133 15.9813ZM16.408 11.608H7.256C8.79333 12.4707 9.848 14.0973 9.848 15.9813C9.84587 16.8394 9.62391 17.6825 9.2033 18.4304C8.78268 19.1783 8.17744 19.8059 7.44533 20.2533H12.3413V27.524C12.3097 28.0932 12.3931 28.6629 12.5866 29.1991C12.7801 29.7353 13.0797 30.227 13.4675 30.6448C13.8554 31.0627 14.3234 31.398 14.8438 31.6308C15.3641 31.8637 15.926 31.9892 16.496 32C17.0781 31.9944 17.6534 31.8742 18.1889 31.6462C18.7245 31.4182 19.21 31.0869 19.6175 30.6712C20.025 30.2556 20.3466 29.7637 20.5639 29.2236C20.7812 28.6836 20.89 28.1061 20.884 27.524V15.9307C20.8574 14.7659 20.3724 13.6587 19.5344 12.8494C18.6964 12.0401 17.5729 11.594 16.408 11.608Z" fill="black"/>
</g>
<defs>
<clipPath id="clip0_386_10653">
<rect width="32" height="32" fill="white"/>
</clipPath>
</defs>
</svg>
