<svg width="32" height="32" viewBox="0 0 32 32" fill="none" xmlns="http://www.w3.org/2000/svg">
<g id="simple-icons:googlemaps" clip-path="url(#clip0_358_10054)">
<path id="Vector" d="M26.0359 6.39869C27.6519 9.87602 27.2853 13.9694 25.4959 17.296C24.0279 20.0254 21.8373 22.2827 20.0319 24.7814C19.2066 25.9254 18.3733 27.1147 17.8066 28.4174C17.6186 28.8507 17.4559 29.2947 17.2959 29.74C17.1346 30.184 16.9973 30.6374 16.8426 31.084C16.6973 31.5027 16.5279 31.996 16.0066 32H15.9973C15.3759 31.9987 15.2253 31.2934 15.0706 30.8174C14.6919 29.652 14.2959 28.5334 13.7119 27.4507C13.0319 26.192 12.1853 25.028 11.3253 23.8894L26.0359 6.39869ZM11.3933 10.2734L6.1146 16.5494C7.07993 18.6027 8.5426 20.3667 9.9426 22.1227C10.2719 22.536 10.6013 22.952 10.9253 23.3707L17.5706 15.4707L17.5319 15.484C15.2106 16.2854 12.6106 15.096 11.6759 12.8347C11.5481 12.5277 11.4546 12.2076 11.3973 11.88C11.3133 11.2974 11.2946 10.8654 11.3919 10.2827L11.3933 10.2734ZM7.3226 4.19869L7.3186 4.20402C4.7226 7.49202 4.27727 12.044 5.82927 15.8974L12.2093 8.31202L12.1319 8.24536L7.3226 4.19869ZM19.5479 0.581355L14.4306 6.66536C14.4424 6.66033 14.4544 6.65588 14.4666 6.65202C16.5999 5.91736 19.0039 6.85202 20.0933 8.82002C20.3279 9.24535 20.5239 9.73069 20.5959 10.2134C20.6866 10.808 20.7093 11.244 20.6119 11.84L20.6079 11.8614L25.7226 5.78002C24.386 3.34222 22.1888 1.49011 19.5599 0.585355L19.5479 0.581355ZM12.6213 7.82402L18.8826 0.380022L18.8199 0.364022C17.8934 0.120482 16.9392 -0.00187134 15.9813 2.16318e-05C14.4301 0.0145506 12.8986 0.349672 11.4831 0.984337C10.0676 1.619 8.79868 2.5395 7.75593 3.68802L7.7346 3.71202L12.6213 7.82402Z" fill="black"/>
</g>
<defs>
<clipPath id="clip0_358_10054">
<rect width="32" height="32" fill="white"/>
</clipPath>
</defs>
</svg>
