<svg xmlns="http://www.w3.org/2000/svg" xmlns:xlink="http://www.w3.org/1999/xlink" viewBox="0,0,256,256" width="64px" height="64px"><defs><linearGradient x1="32" y1="7.766" x2="32" y2="56.935" gradientUnits="userSpaceOnUse" id="color-1"><stop offset="0" stop-color="#ffffff"></stop><stop offset="1" stop-color="#ffffff"></stop></linearGradient><linearGradient x1="33" y1="19.34" x2="33" y2="44.448" gradientUnits="userSpaceOnUse" id="color-2"><stop offset="0" stop-color="#ffffff"></stop><stop offset="1" stop-color="#fffefe"></stop></linearGradient></defs><g fill="none" fill-rule="nonzero" stroke="none" stroke-width="1" stroke-linecap="butt" stroke-linejoin="miter" stroke-miterlimit="10" stroke-dasharray="" stroke-dashoffset="0" font-family="none" font-weight="none" font-size="none" text-anchor="none" style="mix-blend-mode: normal"><g transform="scale(4,4)"><path d="M51,8h-38c-2.757,0 -5,2.243 -5,5v38c0,2.757 2.243,5 5,5h38c2.757,0 5,-2.243 5,-5v-38c0,-2.757 -2.243,-5 -5,-5zM54,51c0,1.654 -1.346,3 -3,3h-38c-1.654,0 -3,-1.346 -3,-3v-38c0,-1.654 1.346,-3 3,-3h38c1.654,0 3,1.346 3,3z" fill="url(#color-1)"></path><path d="M44,24c-3.309,0 -6,-2.691 -6,-6h-4v19c0,2.757 -2.243,5 -5,5c-2.757,0 -5,-2.243 -5,-5c0,-2.757 2.243,-5 5,-5c0.342,0 0.677,0.035 1,0.101v-4.042c-0.329,-0.037 -0.662,-0.059 -1,-0.059c-4.963,0 -9,4.037 -9,9c0,4.963 4.037,9 9,9c4.963,0 9,-4.037 9,-9v-11.019c1.674,1.261 3.748,2.019 6,2.019c0.676,0 1.344,-0.072 2,-0.207v-4.16c-0.646,0.231 -1.315,0.367 -2,0.367z" fill="url(#color-2)"></path></g></g></svg>