<svg width="100" height="100" viewBox="0 0 100 100" fill="none" xmlns="http://www.w3.org/2000/svg">
<g id="material-symbols-light:api">
<path id="Vector" d="M50 58.3335L41.6667 50.0001L50 41.6668L58.3333 50.0001L50 58.3335ZM41.1458 35.296L34.0958 28.2501L50 12.3418L65.9042 28.246L58.8542 35.296L50 26.4418L41.1458 35.296ZM28.2458 65.9043L12.3417 50.0001L28.2458 34.096L35.2917 41.146L26.4417 50.0001L35.2958 58.8543L28.2458 65.9043ZM71.7542 65.9043L64.7042 58.8543L73.5583 50.0001L64.7042 41.146L71.7542 34.096L87.6583 50.0001L71.7542 65.9043ZM50 87.6585L34.0958 71.7543L41.1458 64.7043L50 73.5585L58.8542 64.7043L65.9042 71.7543L50 87.6585Z" fill="#4500D8"/>
</g>
</svg>
