<svg width="28" height="26" viewBox="0 0 28 26" fill="none" xmlns="http://www.w3.org/2000/svg">
<g id="Iconsax/Linear/instagram">
<path id="Vector" d="M10.633 23.0616H17.3583C22.9627 23.0616 25.2044 20.9959 25.2044 15.8315V9.63435C25.2044 4.47003 22.9627 2.4043 17.3583 2.4043H10.633C5.02862 2.4043 2.78687 4.47003 2.78687 9.63435V15.8315C2.78687 20.9959 5.02862 23.0616 10.633 23.0616Z" stroke="white" stroke-width="0.929578" stroke-linecap="round" stroke-linejoin="round"/>
<path id="Vector_2" d="M13.9953 16.3472C14.5105 16.3472 15.0207 16.2537 15.4966 16.0721C15.9726 15.8904 16.4051 15.6241 16.7694 15.2884C17.1337 14.9527 17.4226 14.5542 17.6198 14.1156C17.8169 13.677 17.9184 13.2069 17.9184 12.7322C17.9184 12.2575 17.8169 11.7874 17.6198 11.3488C17.4226 10.9102 17.1337 10.5117 16.7694 10.176C16.4051 9.84032 15.9726 9.57404 15.4966 9.39236C15.0207 9.21069 14.5105 9.11719 13.9953 9.11719C12.9549 9.11719 11.957 9.49806 11.2213 10.176C10.4856 10.854 10.0723 11.7734 10.0723 12.7322C10.0723 13.691 10.4856 14.6105 11.2213 15.2884C11.957 15.9664 12.9549 16.3472 13.9953 16.3472Z" stroke="white" stroke-width="0.929578" stroke-linecap="round" stroke-linejoin="round"/>
<path id="Vector_3" d="M20.313 7.56836H20.3273" stroke="white" stroke-width="1.23944" stroke-linecap="round" stroke-linejoin="round"/>
</g>
</svg>
