<svg width="15" height="15" viewBox="0 0 15 15" fill="none" xmlns="http://www.w3.org/2000/svg">
<g id="List">
<path id="Vector" d="M13.2223 7.11133C13.2223 7.2292 13.1755 7.34225 13.0922 7.4256C13.0088 7.50895 12.8958 7.55577 12.7779 7.55577H3.00011C2.88223 7.55577 2.76919 7.50895 2.68584 7.4256C2.60249 7.34225 2.55566 7.2292 2.55566 7.11133C2.55566 6.99345 2.60249 6.88041 2.68584 6.79706C2.76919 6.71371 2.88223 6.66688 3.00011 6.66688H12.7779C12.8958 6.66688 13.0088 6.71371 13.0922 6.79706C13.1755 6.88041 13.2223 6.99345 13.2223 7.11133ZM3.00011 4.00022H12.7779C12.8958 4.00022 13.0088 3.95339 13.0922 3.87004C13.1755 3.78669 13.2223 3.67365 13.2223 3.55577C13.2223 3.4379 13.1755 3.32485 13.0922 3.2415C13.0088 3.15815 12.8958 3.11133 12.7779 3.11133H3.00011C2.88223 3.11133 2.76919 3.15815 2.68584 3.2415C2.60249 3.32485 2.55566 3.4379 2.55566 3.55577C2.55566 3.67365 2.60249 3.78669 2.68584 3.87004C2.76919 3.95339 2.88223 4.00022 3.00011 4.00022ZM12.7779 10.2224H3.00011C2.88223 10.2224 2.76919 10.2693 2.68584 10.3526C2.60249 10.436 2.55566 10.549 2.55566 10.6669C2.55566 10.7848 2.60249 10.8978 2.68584 10.9812C2.76919 11.0645 2.88223 11.1113 3.00011 11.1113H12.7779C12.8958 11.1113 13.0088 11.0645 13.0922 10.9812C13.1755 10.8978 13.2223 10.7848 13.2223 10.6669C13.2223 10.549 13.1755 10.436 13.0922 10.3526C13.0088 10.2693 12.8958 10.2224 12.7779 10.2224Z" fill="#1E293B"/>
</g>
</svg>
