<svg width="100" height="100" viewBox="0 0 100 100" fill="none" xmlns="http://www.w3.org/2000/svg">
<g id="mdi:database-outline">
<path id="Vector" d="M50 12.5C31.5833 12.5 16.6667 19.9583 16.6667 29.1667V70.8333C16.6667 80.0417 31.625 87.5 50 87.5C68.375 87.5 83.3333 80.0417 83.3333 70.8333V29.1667C83.3333 19.9583 68.4167 12.5 50 12.5ZM75 70.8333C75 72.9167 66.125 79.1667 50 79.1667C33.875 79.1667 25 72.9167 25 70.8333V61.5417C31.7083 64.7917 40.5 66.6667 50 66.6667C59.5 66.6667 68.2917 64.7917 75 61.5417V70.8333ZM75 51.875C69.5833 55.8333 60.0833 58.3333 50 58.3333C39.9167 58.3333 30.4167 55.8333 25 51.875V40.1667C31.125 43.625 40.0417 45.8333 50 45.8333C59.9583 45.8333 68.875 43.625 75 40.1667V51.875ZM50 37.5C33.875 37.5 25 31.25 25 29.1667C25 27.0833 33.875 20.8333 50 20.8333C66.125 20.8333 75 27.0833 75 29.1667C75 31.25 66.125 37.5 50 37.5Z" fill="#4500D8"/>
</g>
</svg>
