<svg width="32" height="33" viewBox="0 0 32 33" fill="none" xmlns="http://www.w3.org/2000/svg">
<g id="mdi:github">
<path id="Vector" d="M16.0001 3.44434C14.2491 3.44434 12.5153 3.78921 10.8976 4.45928C9.27996 5.12934 7.81011 6.11146 6.57199 7.34958C4.07151 9.85006 2.66675 13.2414 2.66675 16.7777C2.66675 22.671 6.49341 27.671 11.7867 29.4443C12.4534 29.551 12.6667 29.1377 12.6667 28.7777V26.5243C8.97341 27.3243 8.18675 24.7377 8.18675 24.7377C7.57341 23.191 6.70675 22.7777 6.70675 22.7777C5.49341 21.951 6.80008 21.9777 6.80008 21.9777C8.13341 22.071 8.84008 23.351 8.84008 23.351C10.0001 25.3777 11.9601 24.7777 12.7201 24.4577C12.8401 23.591 13.1867 23.0043 13.5601 22.671C10.6001 22.3377 7.49341 21.191 7.49341 16.111C7.49341 14.631 8.00008 13.4443 8.86675 12.4977C8.73341 12.1643 8.26675 10.7777 9.00008 8.97767C9.00008 8.97767 10.1201 8.61767 12.6667 10.3377C13.7201 10.0443 14.8667 9.89767 16.0001 9.89767C17.1334 9.89767 18.2801 10.0443 19.3334 10.3377C21.8801 8.61767 23.0001 8.97767 23.0001 8.97767C23.7334 10.7777 23.2667 12.1643 23.1334 12.4977C24.0001 13.4443 24.5067 14.631 24.5067 16.111C24.5067 21.2043 21.3867 22.3243 18.4134 22.6577C18.8934 23.071 19.3334 23.8843 19.3334 25.1243V28.7777C19.3334 29.1377 19.5467 29.5643 20.2267 29.4443C25.5201 27.6577 29.3334 22.671 29.3334 16.7777C29.3334 15.0267 28.9885 13.2929 28.3185 11.6752C27.6484 10.0575 26.6663 8.58769 25.4282 7.34958C24.1901 6.11146 22.7202 5.12934 21.1025 4.45928C19.4849 3.78921 17.751 3.44434 16.0001 3.44434Z" fill="black"/>
</g>
</svg>
