<svg width="20" height="20" viewBox="0 0 20 20" fill="none" xmlns="http://www.w3.org/2000/svg">
<g id="mdi:person-multiple">
<path id="Vector" d="M13.3334 14.1664V15.8331H1.66675V14.1664C1.66675 14.1664 1.66675 10.8331 7.50008 10.8331C13.3334 10.8331 13.3334 14.1664 13.3334 14.1664ZM10.4167 6.24972C10.4167 5.67286 10.2457 5.10895 9.9252 4.62931C9.60471 4.14966 9.14919 3.77583 8.61624 3.55507C8.08329 3.33431 7.49684 3.27655 6.93107 3.38909C6.36529 3.50163 5.84559 3.77942 5.43769 4.18732C5.02978 4.59523 4.752 5.11493 4.63946 5.68071C4.52692 6.24648 4.58468 6.83293 4.80543 7.36588C5.02619 7.89883 5.40002 8.35435 5.87967 8.67484C6.35931 8.99533 6.92322 9.16639 7.50008 9.16639C8.27363 9.16639 9.01549 8.85909 9.56247 8.31211C10.1095 7.76513 10.4167 7.02327 10.4167 6.24972ZM13.2834 10.8331C13.7957 11.2295 14.2149 11.7334 14.5115 12.3093C14.8081 12.8852 14.9748 13.5191 15.0001 14.1664V15.8331H18.3334V14.1664C18.3334 14.1664 18.3334 11.1414 13.2834 10.8331ZM12.5001 3.33305C11.9265 3.32986 11.3655 3.50135 10.8917 3.82472C11.3979 4.532 11.6701 5.37996 11.6701 6.24972C11.6701 7.11948 11.3979 7.96744 10.8917 8.67472C11.3655 8.99809 11.9265 9.16958 12.5001 9.16639C13.2736 9.16639 14.0155 8.85909 14.5625 8.31211C15.1095 7.76513 15.4167 7.02327 15.4167 6.24972C15.4167 5.47617 15.1095 4.7343 14.5625 4.18732C14.0155 3.64034 13.2736 3.33305 12.5001 3.33305Z" fill="#4500D8"/>
</g>
</svg>
