<svg width="28" height="26" viewBox="0 0 28 26" fill="none" xmlns="http://www.w3.org/2000/svg">
<g id="Iconsax/Linear/messages2">
<path id="Vector" d="M21.4476 17.7217L21.8848 20.9855C21.9969 21.8428 20.9993 22.4419 20.2035 21.9977L15.507 19.4259C14.9914 19.4259 14.487 19.3949 13.9938 19.3329C14.8434 18.4254 15.3125 17.2677 15.3164 16.0691C15.3164 13.1358 12.5591 10.7602 9.15159 10.7602C7.85137 10.7602 6.65204 11.101 5.65445 11.7001C5.62083 11.4419 5.60962 11.1836 5.60962 10.9151C5.60962 6.21557 10.0371 2.4043 15.507 2.4043C20.9769 2.4043 25.4043 6.21557 25.4043 10.9151C25.4043 13.7038 23.8463 16.1724 21.4476 17.7217Z" stroke="white" stroke-width="0.929578" stroke-linecap="round" stroke-linejoin="round"/>
<path id="Vector_2" d="M15.3167 16.0687C15.3167 17.2978 14.8235 18.4339 13.9941 19.3325C12.8844 20.572 11.1246 21.3673 9.15189 21.3673L6.2264 22.9682C5.73321 23.2471 5.10552 22.8649 5.17277 22.3382L5.45299 20.3034C3.95102 19.3429 2.98706 17.8039 2.98706 16.0687C2.98706 14.2508 4.04069 12.6499 5.65475 11.6997C6.65233 11.1006 7.85167 10.7598 9.15189 10.7598C12.5594 10.7598 15.3167 13.1354 15.3167 16.0687Z" stroke="white" stroke-width="0.929578" stroke-linecap="round" stroke-linejoin="round"/>
</g>
</svg>
