<svg width="30" height="30" viewBox="0 0 30 30" fill="none" xmlns="http://www.w3.org/2000/svg">
<g id="pajamas:media">
<path id="Vector" fill-rule="evenodd" clip-rule="evenodd" d="M24.375 4.6875H5.625C5.37636 4.6875 5.1379 4.78627 4.96209 4.96209C4.78627 5.1379 4.6875 5.37636 4.6875 5.625V24.375C4.6875 24.6236 4.78627 24.8621 4.96209 25.0379C5.1379 25.2137 5.37636 25.3125 5.625 25.3125H24.375C24.6236 25.3125 24.8621 25.2137 25.0379 25.0379C25.2137 24.8621 25.3125 24.6236 25.3125 24.375V5.625C25.3125 5.37636 25.2137 5.1379 25.0379 4.96209C24.8621 4.78627 24.6236 4.6875 24.375 4.6875ZM5.625 1.875C4.63044 1.875 3.67661 2.27009 2.97335 2.97335C2.27009 3.67661 1.875 4.63044 1.875 5.625V24.375C1.875 25.3696 2.27009 26.3234 2.97335 27.0266C3.67661 27.7299 4.63044 28.125 5.625 28.125H24.375C25.3696 28.125 26.3234 27.7299 27.0266 27.0266C27.7299 26.3234 28.125 25.3696 28.125 24.375V5.625C28.125 4.63044 27.7299 3.67661 27.0266 2.97335C26.3234 2.27009 25.3696 1.875 24.375 1.875H5.625ZM22.5 20.3569L17.8125 15L13.17 20.3062L10.3125 16.875L7.5 20.25V22.5H22.5V20.3569ZM12.1875 15C12.9334 15 13.6488 14.7037 14.1762 14.1762C14.7037 13.6488 15 12.9334 15 12.1875C15 11.4416 14.7037 10.7262 14.1762 10.1988C13.6488 9.67132 12.9334 9.375 12.1875 9.375C11.4416 9.375 10.7262 9.67132 10.1988 10.1988C9.67132 10.7262 9.375 11.4416 9.375 12.1875C9.375 12.9334 9.67132 13.6488 10.1988 14.1762C10.7262 14.7037 11.4416 15 12.1875 15Z" fill="white"/>
</g>
</svg>
