<svg width="28" height="26" viewBox="0 0 28 26" fill="none" xmlns="http://www.w3.org/2000/svg">
<g id="Iconsax/Linear/profile">
<path id="Vector" d="M13.9371 11.5656C13.825 11.5552 13.6905 11.5552 13.5672 11.5656C12.2807 11.5253 11.0617 11.0252 10.1683 10.1712C9.27496 9.31711 8.77743 8.17618 8.78109 6.98998C8.78109 4.45947 11.0004 2.40407 13.7578 2.40407C14.4106 2.39321 15.0593 2.50095 15.667 2.72113C16.2746 2.94131 16.8292 3.26962 17.2991 3.68731C17.7691 4.105 18.1451 4.60389 18.4058 5.1555C18.6665 5.70711 18.8068 6.30064 18.8185 6.90219C18.8303 7.50374 18.7134 8.10154 18.4745 8.66146C18.2355 9.22137 17.8792 9.73244 17.426 10.1655C16.9727 10.5985 16.4313 10.945 15.8327 11.1853C15.234 11.4255 14.5899 11.5547 13.9371 11.5656ZM8.33273 15.3768C5.62021 17.0501 5.62021 19.7768 8.33273 21.4398C11.4151 23.3402 16.4703 23.3402 19.5527 21.4398C22.2652 19.7665 22.2652 17.0398 19.5527 15.3768C16.4815 13.4867 11.4264 13.4867 8.33273 15.3768Z" stroke="white" stroke-width="0.929578" stroke-linecap="round" stroke-linejoin="round"/>
</g>
</svg>
