<svg width="32" height="38" viewBox="0 0 32 38" fill="none" xmlns="http://www.w3.org/2000/svg">
<path id="Vector" d="M0 2.30128V35.197C0.000199999 35.2684 0.0195176 35.3381 0.0555305 35.3974C0.0915433 35.4568 0.142648 35.5031 0.202437 35.5305C0.262226 35.5579 0.328037 35.5653 0.391618 35.5517C0.455198 35.5381 0.513718 35.5041 0.55984 35.454L16.1039 18.75L0.55984 2.04431C0.513718 1.9942 0.455198 1.96021 0.391618 1.94661C0.328037 1.933 0.262226 1.94038 0.202437 1.96783C0.142648 1.99527 0.0915433 2.04155 0.0555305 2.10087C0.0195176 2.16019 0.000199999 2.22991 0 2.30128ZM22.6215 11.8863L3.13115 0.0538203L3.119 0.0462869C2.78325 -0.154603 2.46421 0.345948 2.73919 0.637239L18.0174 16.7352L22.6215 11.8863ZM2.74071 36.8628C2.46421 37.1541 2.78325 37.6546 3.12052 37.4537L3.13267 37.4462L22.6215 25.6137L18.0174 20.7631L2.74071 36.8628ZM30.4896 16.6574L25.047 13.3544L19.9294 18.75L25.047 24.1431L30.4896 20.8426C31.9701 19.9411 31.9701 17.5589 30.4896 16.6574Z" fill="white"/>
</svg>
